PathFileType	4	(X/Y/Z)	C:/Users/opensim2020/Desktop/walking_exp_matlab/subject03_walking13_straight_02.trc																																																																																																																																								
DataRate	CameraRate	NumFrames	NumMarkers	Units	OrigDataRate	OrigDataStartFrame	OrigNumFrames																																																																																																																																				
100	100	8	46	mm	100	1175	193																																																																																																																																				
Frame#	Time	LFHD			RFHD			LBHD			RBHD			C7			T10			CLAV			STRN			RBAK			LSHO			LUPA			LELB			LFRM			LWRA			LWRB			LFIN			RSHO			RUPA			RELB			RFRM			RWRA			RWRB			RFIN			LASI			RASI			LPSI			RPSI			LTHI			LKNE			LTIB			LANK			LHEE			LTOE			RTHI			RKNE			RTIB			RANK			RHEE			RTOE			*39			*40			*41			*42			*43			*44			*45		
		X1	Y1	Z1	X2	Y2	Z2	X3	Y3	Z3	X4	Y4	Z4	X5	Y5	Z5	X6	Y6	Z6	X7	Y7	Z7	X8	Y8	Z8	X9	Y9	Z9	X10	Y10	Z10	X11	Y11	Z11	X12	Y12	Z12	X13	Y13	Z13	X14	Y14	Z14	X15	Y15	Z15	X16	Y16	Z16	X17	Y17	Z17	X18	Y18	Z18	X19	Y19	Z19	X20	Y20	Z20	X21	Y21	Z21	X22	Y22	Z22	X23	Y23	Z23	X24	Y24	Z24	X25	Y25	Z25	X26	Y26	Z26	X27	Y27	Z27	X28	Y28	Z28	X29	Y29	Z29	X30	Y30	Z30	X31	Y31	Z31	X32	Y32	Z32	X33	Y33	Z33	X34	Y34	Z34	X35	Y35	Z35	X36	Y36	Z36	X37	Y37	Z37	X38	Y38	Z38	X39	Y39	Z39	X40	Y40	Z40	X41	Y41	Z41	X42	Y42	Z42	X43	Y43	Z43	X44	Y44	Z44	X45	Y45	Z45	X46	Y46	Z46
																																																																																																																																											
97	0.96	-84.71584	1621.40308	-1456.13672	-95.28825	1628.37402	-1323.82642	-214.461	1584.1886	-1460.58264	-219.96159	1590.54016	-1329.98169	-254.05362	1421.90527	-1392.24097	-284.04745	1107.3125	-1387.42029	-132.03596	1346.875	-1395.69958	-86.92665	1182.93152	-1403.55164	-300.25485	1244.39978	-1292.3667	-188.2088	1385.62036	-1548.87634	-196.24963	1190.55688	-1621.54956	-175.15523	1071.19031	-1631.86414	-93.18307	975.19019	-1622.40991	-12.26416	895.12286	-1580.1051	-37.37445	875.44263	-1625.24597	26.81639	824.45721	-1611.39673	-174.71608	1370.99512	-1235.21399	-157.26125	1151.1394	-1157.57678	-131.85713	1041.38977	-1143.4884	-103.52458	907.59418	-1138.87976	-68.00411	814.06885	-1174.15894	-95.64744	807.75269	-1127.53271	-68.05939	738.33453	-1137.46704	-121.967	946.54529	-1510.94519	-108.67448	950.98987	-1273.82898	-281.57007	960.3197	-1452.93811	-270.73431	976.15057	-1304.94885	-108.55875	644.56519	-1557.21863	-43.2338	477.57089	-1533.69397	-150.84399	311.26987	-1523.93127	-253.31841	132.10811	-1476.67603	-304.51169	116.37838	-1434.86462	-136.41519	45.06294	-1456.45947	-154.30103	652.35944	-1231.99231	-143.59761	475.10687	-1272.50537	-198.74255	288.17352	-1267.33105	-241.93903	76.45255	-1315.797	-289.01172	46.37732	-1364.21472	-102.08511	35.9853	-1334.43433	NaN	NaN	NaN	NaN	NaN	NaN	NaN	NaN	NaN	NaN	NaN	NaN	NaN	NaN	NaN	NaN	NaN	NaN	NaN	NaN	NaN
98	0.97	-72.00215	1621.53833	-1456.24573	-82.55646	1628.39111	-1323.98779	-201.79144	1584.25769	-1460.73767	-207.37656	1590.51501	-1330.04858	-241.63452	1422.38916	-1392.24133	-271.4809	1107.58521	-1386.49023	-119.28001	1346.95532	-1395.83118	-74.48387	1182.88232	-1403.44043	-287.01208	1244.82166	-1291.14563	-176.02196	1385.26343	-1548.89014	-185.72946	1190.01489	-1621.24084	-166.34074	1070.00671	-1631.39844	-87.36478	971.11584	-1622.55603	-8.89596	887.901	-1581.00342	-35.04762	869.41931	-1626.0907	26.8791	815.32117	-1612.4281	-161.36147	1371.63037	-1235.30383	-142.03374	1152.24316	-1156.95996	-115.1278	1042.88538	-1142.72607	-83.58377	909.82434	-1138.66479	-45.63641	817.51782	-1174.41589	-73.44482	810.19635	-1127.92615	-43.51465	741.82074	-1137.80237	-109.799	947.1059	-1510.50354	-96.37077	950.45721	-1273.6095	-269.22385	960.75024	-1452.70422	-258.30051	976.42065	-1304.60205	-92.82282	646.25391	-1556.91174	-25.5075	480.20358	-1531.79126	-124.44518	307.67407	-1523.06921	-215.66852	122.10165	-1476.96326	-265.97583	102.95225	-1435.05933	-92.93755	43.0901	-1457.20776	-146.17842	651.99854	-1232.30322	-139.97218	474.47806	-1272.51086	-196.67882	288.3898	-1267.39771	-241.49188	76.82234	-1315.97839	-288.7128	47.23991	-1364.50049	-102.07156	35.98276	-1334.30383	NaN	NaN	NaN	NaN	NaN	NaN	NaN	NaN	NaN	NaN	NaN	NaN	NaN	NaN	NaN	NaN	NaN	NaN	NaN	NaN	NaN
99	0.98	-59.32894	1621.38501	-1456.422	-69.92847	1628.22986	-1324.11853	-188.83554	1583.96838	-1460.58691	-194.78976	1590.32874	-1330.18262	-228.71948	1422.29443	-1392.24475	-258.95175	1107.4978	-1385.75916	-106.57759	1346.76367	-1395.97986	-62.02839	1182.58276	-1403.3186	-273.92023	1244.95496	-1290.09619	-163.63048	1384.66199	-1548.99268	-175.13022	1189.19946	-1620.89978	-157.27344	1068.57031	-1631.09546	-81.48737	966.68115	-1622.83569	-6.00492	880.22595	-1581.94128	-33.11293	863.08362	-1627.08105	26.1502	805.84943	-1613.53711	-148.02551	1371.88989	-1235.39099	-126.88074	1153.02344	-1156.38586	-98.5489	1044.16248	-1141.94189	-63.88823	911.8808	-1138.49268	-23.44576	820.81433	-1174.72754	-51.16018	812.48663	-1128.50464	-19.14973	745.435	-1138.42236	-97.47086	947.16345	-1510.33716	-84.36657	949.6731	-1273.72339	-256.76804	960.64087	-1452.48218	-246.08963	976.54535	-1304.30225	-77.05538	647.67035	-1556.59399	-8.70645	482.31567	-1530.11047	-98.30815	304.09064	-1522.6134	-177.34247	112.90862	-1477.62671	-226.07614	89.97208	-1435.46973	-49.21205	42.00161	-1458.3717	-138.22244	651.56494	-1232.5531	-135.14044	473.80872	-1272.15479	-194.29088	288.6499	-1267.38843	-241.08092	77.366	-1316.06763	-288.53128	48.13508	-1364.71338	-101.89005	35.90536	-1334.42078	NaN	NaN	NaN	NaN	NaN	NaN	NaN	NaN	NaN	NaN	NaN	NaN	NaN	NaN	NaN	NaN	NaN	NaN	NaN	NaN	NaN
100	0.99	-46.63774	1620.97485	-1456.58826	-57.35654	1627.86658	-1324.27966	-176.31349	1583.54077	-1461.0592	-182.46165	1589.93604	-1330.4043	-215.98508	1421.75562	-1392.00476	-246.34508	1107.0509	-1385.16931	-93.90282	1346.3147	-1396.1156	-49.37384	1182.0116	-1403.23071	-260.94382	1244.7478	-1289.28894	-151.2749	1383.80762	-1549.14856	-164.35196	1188.09875	-1620.62109	-147.96584	1066.90906	-1630.81982	-75.69827	961.94104	-1623.10315	-3.53164	872.2652	-1582.95251	-31.56797	856.44305	-1628.11279	25.14804	796.53912	-1614.88049	-134.75694	1371.86023	-1235.50281	-111.78342	1153.55566	-1155.83618	-82.0331	1045.16821	-1141.15894	-44.04376	913.75739	-1138.45032	-1.82303	823.93262	-1175.31201	-28.93513	814.65076	-1129.29224	5.21479	748.80487	-1139.24695	-84.9759	946.93738	-1510.09167	-72.09685	948.79382	-1273.68018	-244.55165	960.37152	-1452.49744	-233.8838	976.40283	-1304.23755	-61.62855	648.62189	-1556.50488	7.37175	483.89041	-1528.625	-72.72545	300.4332	-1522.33557	-138.103	103.55147	-1478.19238	-184.99185	77.19331	-1436.16492	-4.6778	42.54906	-1460.07397	-130.1059	650.97424	-1232.81201	-130.30888	473.14142	-1271.92004	-191.61024	288.81558	-1267.44775	-240.80069	78.06593	-1316.28577	-288.60696	49.15722	-1365.12415	-101.91926	35.92774	-1334.30786	NaN	NaN	NaN	NaN	NaN	NaN	NaN	NaN	NaN	NaN	NaN	NaN	NaN	NaN	NaN	NaN	NaN	NaN	NaN	NaN	NaN
101	1	-33.99123	1620.32239	-1456.76294	-44.7085	1627.29944	-1324.47791	-163.57405	1582.80176	-1461.36121	-169.89914	1589.26855	-1330.63818	-203.0499	1421.00354	-1391.90063	-233.73366	1106.37622	-1384.80139	-81.11832	1345.67004	-1396.25439	-36.86944	1181.23657	-1403.15771	-247.88281	1244.22986	-1288.59009	-138.61366	1382.67822	-1549.14307	-153.49651	1186.71997	-1620.24915	-138.34738	1064.98718	-1630.57703	-70.09363	956.95135	-1623.41162	-1.57288	863.99628	-1584.04834	-30.35441	849.69165	-1629.24597	23.44246	787.01154	-1616.28064	-121.53658	1371.55371	-1235.64075	-96.71185	1153.74963	-1155.31042	-65.65917	1045.87708	-1140.43372	-24.51876	915.42609	-1138.40613	20.46337	827.25244	-1175.6864	-6.86466	816.69391	-1130.06787	29.3871	752.07745	-1140.21838	-72.28952	946.32153	-1510.02112	-59.9859	947.67096	-1273.70813	-232.20284	959.78705	-1452.72766	-221.60309	975.84564	-1304.28967	-46.354	649.24152	-1556.64783	22.79932	484.85327	-1527.31116	-47.27014	297.00165	-1522.32422	-98.90989	96.05015	-1479.26294	-144.2505	66.4981	-1437.47632	38.05441	43.53364	-1461.57495	-122.14571	650.32489	-1232.96021	-125.16526	472.29846	-1271.76135	-188.75415	288.91879	-1267.55798	-240.56865	78.81094	-1316.68018	-288.15979	50.15394	-1365.54663	-101.60337	35.7693	-1334.51807	NaN	NaN	NaN	NaN	NaN	NaN	NaN	NaN	NaN	NaN	NaN	NaN	NaN	NaN	NaN	NaN	NaN	NaN	NaN	NaN	NaN
102	1.01	-21.27596	1619.46375	-1456.97607	-32.21831	1626.51355	-1324.69324	-150.86981	1581.79602	-1461.73389	-157.29999	1588.35754	-1330.98364	-190.27356	1420.11328	-1391.92712	-221.18037	1105.47632	-1384.76575	-68.36367	1344.79553	-1396.42664	-24.32128	1180.14124	-1403.12354	-234.89441	1243.50671	-1288.05054	-126.39262	1381.33044	-1549.42346	-142.42137	1185.0885	-1619.94678	-128.58458	1062.88232	-1630.32983	-64.4533	951.82721	-1623.74268	-0.01098	855.82806	-1585.33643	-29.60216	842.88782	-1630.51233	21.36876	777.8479	-1617.94666	-108.25732	1371.10583	-1235.73975	-81.63126	1153.7605	-1154.91675	-49.35574	1046.35352	-1139.83167	-5.08746	916.93219	-1138.4668	42.47284	830.42175	-1176.25842	14.95842	818.56293	-1130.87732	53.20585	755.39594	-1141.39954	-59.35008	945.43903	-1509.9751	-48.06562	946.41992	-1273.66956	-219.54419	958.73267	-1453.20508	-209.76306	975.10339	-1304.47913	-31.33213	649.41779	-1556.7301	37.60311	485.2767	-1526.22168	-22.0964	294.00708	-1522.38086	-59.93036	89.54507	-1480.22473	-103.31374	57.29213	-1439.19702	80.01669	44.36761	-1462.78979	-114.08752	649.62299	-1233.10413	-119.74586	471.48099	-1271.64185	-185.75586	289.04126	-1267.64282	-240.10277	79.41176	-1316.9325	-288.18954	51.29417	-1365.98633	-101.493	35.76603	-1334.56482	NaN	NaN	NaN	NaN	NaN	NaN	NaN	NaN	NaN	NaN	NaN	NaN	NaN	NaN	NaN	NaN	NaN	NaN	NaN	NaN	NaN
103	1.02	-8.54849	1618.42505	-1457.19214	-19.6835	1625.55676	-1324.92957	-138.13171	1580.59937	-1462.12866	-144.7619	1587.17175	-1331.24927	-177.49623	1419.13477	-1392.02869	-208.65573	1104.35999	-1384.84973	-55.55635	1343.63037	-1396.5907	-11.54785	1179.00305	-1403.18591	-222.0787	1242.60364	-1287.79016	-113.92602	1379.85754	-1549.63281	-131.23192	1183.23804	-1619.51953	-118.55936	1060.63232	-1630.08484	-58.81128	946.60608	-1624.12	1.10413	847.46051	-1586.56934	-29.1064	836.18433	-1631.80615	18.82752	768.80029	-1619.68066	-95.16176	1370.28064	-1235.90503	-66.66432	1153.49951	-1154.57764	-33.19774	1046.55029	-1139.29382	14.30581	918.33063	-1138.62097	64.046	833.46875	-1177.03455	36.93427	820.43964	-1132.07495	77.03017	758.52966	-1142.78894	-46.41811	944.25653	-1509.69055	-36.5934	944.94714	-1273.53357	-206.93033	957.53699	-1453.70032	-197.91145	973.95837	-1304.8877	-16.54514	649.29987	-1556.95081	51.99508	485.21582	-1525.24292	2.7964	291.33472	-1522.67322	-20.93541	84.16373	-1481.71777	-61.6118	49.4766	-1440.72766	121.9197	45.50754	-1464.31311	-106.04729	648.83807	-1233.17468	-114.06474	470.66824	-1271.54761	-182.74074	289.15469	-1267.77429	-239.72864	80.19529	-1317.29675	-287.68954	52.25651	-1366.52185	-101.46638	35.74545	-1334.61829	NaN	NaN	NaN	NaN	NaN	NaN	NaN	NaN	NaN	NaN	NaN	NaN	NaN	NaN	NaN	NaN	NaN	NaN	NaN	NaN	NaN
104	1.03	4.16587	1617.2395	-1457.38635	-7.19968	1624.48962	-1325.14661	-125.34063	1579.22205	-1462.56873	-132.27353	1585.93921	-1331.71838	-164.6266	1417.7406	-1392.15515	-196.13835	1103.08972	-1385.27148	-42.69497	1342.34436	-1396.80237	1.20695	1177.67542	-1403.24646	-209.43315	1241.55676	-1287.67578	-101.26884	1378.12683	-1549.84399	-119.80566	1181.16382	-1619.09644	-108.36194	1058.17932	-1629.75574	-53.38961	941.34473	-1624.44299	1.75383	839.07159	-1587.76184	-28.80865	829.69543	-1633.18604	15.80264	760.00262	-1621.52466	-81.97408	1369.09106	-1236.12207	-51.79087	1152.93103	-1154.28491	-17.1985	1046.54419	-1138.87146	33.28542	919.52844	-1138.79272	85.64963	836.6131	-1177.75549	58.47607	822.24799	-1133.10461	100.6224	761.75714	-1144.2478	-33.28346	942.79144	-1509.26404	-24.59591	943.58423	-1273.18713	-194.20357	956.09454	-1454.38196	-185.92886	972.474	-1305.55774	-2.13781	648.72015	-1557.03613	65.85205	484.7413	-1524.38452	27.4294	288.785	-1523.30029	18.21669	79.92844	-1483.63855	-20.4157	43.41366	-1442.16797	163.16379	47.59808	-1465.98438	-97.78254	647.94061	-1233.29395	-108.16689	469.73804	-1271.54187	-179.6308	289.23566	-1267.88867	-239.41597	80.96689	-1317.63062	-287.46442	53.49453	-1366.94299	-101.42523	35.66008	-1334.63281	NaN	NaN	NaN	NaN	NaN	NaN	NaN	NaN	NaN	NaN	NaN	NaN	NaN	NaN	NaN	NaN	NaN	NaN	NaN	NaN	NaN
